<svg width="178" height="283" viewBox="0 0 178 283" fill="none" xmlns="http://www.w3.org/2000/svg">
<path d="M86.8433 271.922C84.1545 277.763 86.091 259.944 61.2035 251.38C36.3159 242.816 18.0136 234.905 18.6215 217.172C19.2295 199.438 40.4356 201.225 63.6045 216.066C87.6843 231.49 89.532 266.08 86.8433 271.922Z" fill="#55A370"/>
<path d="M89.7454 187.827C86.96 191.967 79.5481 178.842 59.3368 167.528C39.1255 156.213 25.5026 153.487 27.5645 137.404C29.1688 124.889 51.8538 122.23 70.0584 138.207C88.9789 154.812 92.5308 183.686 89.7454 187.827Z" fill="#55A370"/>
<path d="M92.2285 156.282C94.0917 159.052 100.324 149.371 116.027 140.259C131.731 131.147 142.056 128.466 141.364 117.222C140.826 108.473 124.012 107.854 109.562 120.147C94.5445 132.924 90.3654 153.512 92.2285 156.282Z" fill="#55A370"/>
<path d="M90.8761 273.358C94.4107 278.956 103.576 262.622 128.813 249.741C154.049 236.859 171.108 234.516 168.362 213.533C166.226 197.207 137.748 191.799 115.075 210.885C91.5097 230.721 87.3416 267.76 90.8761 273.358Z" fill="#55A370"/>
<path d="M94.5642 282.63C94.5642 282.63 95.1026 232.064 94.3692 175.47C93.8541 135.717 87.1158 86.1253 87.1158 86.1253L82.2062 85.4572C82.2062 85.4572 88.2138 138.186 88.5521 175.47C88.8905 212.754 87.0885 282.63 87.0885 282.63L94.5642 282.63Z" fill="#55A370"/>
<path d="M89.8214 282.63C89.8214 282.63 89.9951 185.659 90.0321 177.996C90.0691 170.333 83.1052 87.9985 83.1052 87.9985L80.3018 87.0407C80.3018 87.0407 86.4101 138.528 86.4113 176.424C86.4124 214.319 84.7446 282.63 84.7446 282.63L89.8214 282.63Z" fill="#2D6A6E"/>
<path d="M74.4426 154.051C80.7561 160.64 86.5792 174.804 86.8997 178.54C87.2201 182.275 81.3163 166.391 71.7914 158.701C62.2666 151.012 55.7903 149.058 53.5194 146.176C51.2484 143.295 68.1291 147.462 74.4426 154.051Z" fill="#2D6A6E"/>
<path d="M69.6807 235.73C77.5008 242.467 85.9473 257.152 86.8632 261.057C87.7791 264.962 78.9829 248.477 67.5287 240.671C56.0745 232.866 48.7861 230.988 45.8952 228.029C43.0043 225.071 61.8607 228.993 69.6807 235.73Z" fill="#2D6A6E"/>
<path d="M105.839 132.772C100.885 137.68 96.0352 148.201 95.6652 150.971C95.2953 153.741 100.266 141.945 107.66 136.209C115.054 130.472 119.968 128.999 121.767 126.855C123.566 124.71 110.792 127.864 105.839 132.772Z" fill="#2D6A6E"/>
<path d="M115.759 232.667C106.483 240.27 95.8066 256.309 94.4439 260.492C93.0811 264.675 104.305 246.712 117.709 237.754C131.113 228.797 139.368 226.361 142.839 223.056C146.31 219.75 125.035 225.064 115.759 232.667Z" fill="#2D6A6E"/>
<path d="M17.1179 30.4637C12.8274 37.0612 20.3092 47.7044 23.5272 52.1028C26.7453 56.5012 58.9252 69.6963 77.1603 67.4971C95.3954 65.2979 130.82 35.9618 130.82 35.9618C130.82 35.9618 135.111 24.9659 132.965 16.1691C130.82 7.37237 122.239 9.57156 120.094 9.57156C117.948 9.57156 116.876 1.8744 109.367 1.8744C101.858 1.8744 102.931 7.37217 99.7131 7.37237C96.4951 7.37258 90.0592 -1.42458 82.5506 0.774862C75.042 2.9743 78.26 10.6712 75.042 10.6712C71.824 10.6712 70.7514 1.87446 62.1701 1.8744C53.5889 1.87434 51.4436 9.57156 47.1529 10.6712C42.8623 11.7707 40.717 7.37237 33.2084 10.6712C25.6998 13.9699 29.9898 20.5673 26.7719 23.8661C23.5539 27.1649 21.4085 23.8661 17.1179 30.4637Z" fill="#FFB84E"/>
<path d="M47.8393 23.0849C46.6464 24.3424 60.4338 38.6572 61.5809 39.9566C62.2481 40.7124 59.2408 39.9146 56.9237 38.5942C54.6066 37.2738 51.632 34.6627 51.1425 34.6539C49.9725 34.6329 56.3092 39.1781 59.2174 41.1931C59.4602 41.3613 55.5136 40.3154 51.0739 38.4893C47.2058 36.8983 42.8717 34.5056 41.7821 34.486C39.4419 34.444 49.8806 39.7467 53.368 41.0881C55.5686 41.9346 60.0496 42.9043 62.6821 43.813C62.9259 43.8971 59.6679 44.4141 55.6621 43.687C51.3214 42.8991 46.2002 40.8619 46.348 40.9622C46.6347 41.1567 49.8121 43.5821 55.6392 44.9655C61.4662 46.3489 68.2918 46.2225 68.2918 46.2225C68.2918 46.2225 85.2333 46.0403 88.7204 47.3818C90.9233 48.2292 96.1224 38.7012 102.669 33.0206C106.484 29.7093 109.143 26.2314 108.656 25.4549C108.17 24.6783 106.829 27.7242 103.884 30.4847C101.409 32.8052 98.4999 34.2247 97.9657 34.2151C97.4079 34.2051 98.946 32.5254 100.374 30.4217C101.942 28.1128 103.418 25.3609 102.806 25.3499C102.34 25.3416 100.46 29.0185 98.0115 31.6582C94.3087 35.6496 89.684 39.182 89.684 39.182C89.684 39.182 92.7364 34.9362 95.6945 30.3378C98.4198 26.1011 99.926 21.4617 99.365 21.4516C98.8101 21.4417 97.2391 26.4329 94.5245 30.3168C91.516 34.6209 88.537 37.8826 88.537 37.8826C88.537 37.8826 93.3773 29.0173 92.2074 28.9963C91.7009 28.9873 92.2074 28.9963 89.7986 32.7897C87.3898 36.5831 86.2199 36.5621 86.2199 36.5621C86.2199 36.5621 88.524 33.0673 89.8674 28.9544C91.3305 24.4749 91.8198 19.3707 91.198 20.0263C90.6443 20.61 90.1405 23.9666 88.7204 27.6549C87.081 31.9126 84.5067 36.5313 83.8798 36.5201C83.3119 36.5099 85.1186 32.7057 85.2104 27.592C85.3021 22.4782 85.4049 18.6434 84.2009 18.6218C83.0444 18.6011 84.4117 22.9993 84.0404 27.571C83.6604 32.2491 81.5648 35.8318 80.3698 36.4571C79.0628 37.1411 79.4283 31.3137 79.3833 26.2086C79.347 22.0846 78.8738 18.5263 78.351 18.517C77.1811 18.496 79.2457 33.8792 76.9057 33.8373C75.6757 33.8152 74.7033 26.1246 74.7033 26.1246C74.7033 26.1246 73.671 18.4329 72.501 18.4119C71.331 18.391 74.5886 32.5168 73.4187 32.4958C72.2488 32.4749 67.7979 19.6064 66.628 19.5854C65.4581 19.5645 71.1015 31.1753 69.9316 31.1544C68.7617 31.1335 63.408 20.004 61.9251 20.7799C60.4422 21.5559 72.1798 36.3101 70.9869 37.5677C69.7941 38.8252 59.5162 24.5733 58.3463 24.5523C57.1764 24.5313 65.2286 32.3488 64.0358 33.6064C62.8429 34.8639 53.6893 23.1899 51.3493 23.1479C49.0093 23.1059 67.4311 40.0616 67.4311 40.0616C67.4311 40.0616 60.3399 36.9056 55.8687 32.181C51.737 27.8152 48.4122 22.481 47.8393 23.0849Z" fill="white"/>
<path d="M85.2567 83.5654C54.9578 88.3784 25.6355 64.0459 22.3892 53.4573C19.1429 42.8687 23.6821 38.3231 27.9054 39.2858C32.1286 40.2484 36.4569 44.0988 38.6212 44.0988C40.7855 44.0988 44.0318 40.2484 50.5244 40.2484C57.017 40.2484 57.122 45.0614 60.3684 44.0988C63.6147 43.1362 61.4505 38.3232 65.7789 37.3606C70.1073 36.398 74.9652 45.0614 77.1293 44.0988C79.2935 43.1362 75.5264 33.1142 80.9369 32.1516C86.3474 31.1889 90.3824 40.2484 93.6288 39.2858C96.8751 38.3232 96.0778 27.7346 100.406 26.772C104.735 25.8093 107.981 28.6972 111.227 28.6971C114.473 28.6971 115.556 21.9589 120.966 20.9963C126.377 20.0337 133.951 20.9964 132.869 35.4354C131.787 49.8744 115.556 78.7524 85.2567 83.5654Z" fill="#FFB84E"/>
<path d="M66.5311 78.161C69.7415 81.0881 76.851 83.4761 78.7589 83.4936C80.6667 83.511 73.6876 79.8092 68.9883 76.6459C64.2889 73.4825 62.3258 70.3281 60.9087 69.2949C59.4916 68.2618 63.3208 75.2339 66.5311 78.161Z" fill="white"/>
<path d="M72.6598 75.2398C74.5467 79.1549 80.2445 84.0275 82.0048 84.7567C83.7651 85.486 78.6755 79.4436 75.4973 74.7528C72.3191 70.0619 71.6715 66.4021 70.7425 64.914C69.8135 63.426 70.7728 71.3246 72.6598 75.2398Z" fill="white"/>
<path d="M80.1676 74.514C80.3099 78.8451 82.7082 85.4522 83.669 86.7708C84.6298 88.0894 82.9663 80.614 82.1874 75.0915C81.4085 69.569 82.0158 65.9259 81.8212 64.2028C81.6267 62.4797 80.0253 70.1829 80.1676 74.514Z" fill="white"/>
<path d="M96.3791 73.3491C93.671 76.7484 87.0347 80.2363 85.1565 80.5572C83.2783 80.878 89.581 76.1145 93.7202 72.2451C97.8593 68.3757 99.3024 64.9505 100.538 63.7055C101.774 62.4605 99.0872 69.9498 96.3791 73.3491Z" fill="white"/>
<path d="M80.5506 79.5734C78.6816 80.5313 74.9437 77.6575 74.0092 80.5313C73.0748 83.4051 74.9437 86.2789 76.8127 87.2369C78.6818 88.1948 79.6159 87.4323 81.4849 88.1947C83.354 88.9572 84.6026 89.5314 86.8432 88.9572C89.0837 88.383 89.8952 84.3631 92.6986 83.4051C95.502 82.4472 95.502 78.6155 93.6331 77.6575C91.7642 76.6996 89.8952 78.6155 88.0262 78.6154C86.1572 78.6154 85.2229 75.7417 83.354 76.6996C81.485 77.6575 82.4195 78.6155 80.5506 79.5734Z" fill="#2D6A6E"/>
<path d="M22.3892 53.7277C19.1429 43.0516 23.6821 38.4685 27.9054 39.4391C32.1286 40.4096 36.4569 44.2918 38.6212 44.2918C40.7855 44.2918 44.0318 40.4096 50.5244 40.4096C57.017 40.4096 57.122 45.2624 60.3684 44.2918C63.6147 43.3213 61.4505 38.4686 65.7789 37.498C70.1073 36.5274 73.696 45.2624 75.8601 44.2918C78.0243 43.3213 75.5264 34.4962 80.9369 33.5256C86.3474 32.555 90.3824 41.3802 93.6288 40.4096C96.8751 39.4391 96.0778 27.7925 100.406 26.8219C104.735 25.8513 107.981 28.763 111.227 28.763C114.473 28.763 115.556 21.969 120.966 20.9985C126.377 20.0279 133.951 20.9986 132.869 35.5569" stroke="white" stroke-width="1.8" stroke-linecap="round"/>
</svg>
