<svg width="178" height="283" viewBox="0 0 178 283" fill="none" xmlns="http://www.w3.org/2000/svg">
<path d="M84.7192 267.143C82.3159 273.479 83.4596 254.43 58.5115 246.419C33.5634 238.409 15.1471 230.802 14.9824 211.903C14.8177 193.003 35.8377 193.965 59.3592 208.731C83.8054 224.078 87.1226 260.807 84.7192 267.143Z" fill="#55A370"/>
<path d="M66.2077 229.388C74.2213 236.211 83.1966 251.464 84.2696 255.579C85.3426 259.694 75.9444 242.541 64.2956 234.742C52.6469 226.943 45.3679 225.269 42.3853 222.248C39.4027 219.227 58.1941 222.565 66.2077 229.388Z" fill="#2D6A6E"/>
<path d="M91.5084 282.856C91.5084 282.856 92.0292 248.354 91.3198 209.739C90.8215 182.614 84.3036 148.777 84.3036 148.777L79.5547 148.321C79.5547 148.321 85.3657 184.299 85.693 209.739C86.0203 235.178 84.2772 282.856 84.2772 282.856H91.5084Z" fill="#55A370"/>
<path d="M86.9207 282.856C86.9207 282.856 87.0888 216.691 87.1246 211.462C87.1604 206.234 80.7083 147.27 80.7083 147.27H78.7111C78.7111 147.27 83.621 184.533 83.6221 210.39C83.6233 236.246 82.01 282.856 82.01 282.856H86.9207Z" fill="#2D6A6E"/>
<path d="M87.9494 267.987C89.9034 275.027 100.215 257.053 123.15 245.252C146.085 233.451 160.506 232.947 161.816 207.943C162.835 188.487 140.344 178.383 118.461 197.809C95.718 217.998 85.9955 260.947 87.9494 267.987Z" fill="#55A370"/>
<path d="M115.32 223.48C106.402 231.186 94.8993 248.615 93.0681 253.348C91.2369 258.081 103.517 238.464 116.058 229.711C128.6 220.958 135.8 219.187 139.215 215.762C142.63 212.337 124.238 215.773 115.32 223.48Z" fill="#2D6A6E"/>
<path d="M86.7798 183.134C89.1976 185.71 94.1385 174.623 109.125 162.581C124.112 150.539 134.516 146.065 131.921 134.482C129.902 125.469 112.132 127.571 98.9909 142.717C85.3333 158.459 84.362 180.557 86.7798 183.134Z" fill="#55A370"/>
<path d="M97.1757 156.457C92.7865 162.371 89.4377 174.106 89.5091 177.048C89.5806 179.99 92.844 166.909 99.6605 159.735C106.477 152.561 111.395 150.226 112.93 147.701C114.464 145.177 101.565 150.543 97.1757 156.457Z" fill="#2D6A6E"/>
<path d="M91.0824 136.202C89.8451 141.922 85.0489 145.577 80.3699 144.367C75.6909 143.157 72.9008 137.54 74.1382 131.82C75.3755 126.101 80.1716 122.445 84.8506 123.656C89.5296 124.866 92.3197 130.483 91.0824 136.202Z" fill="#FFB84E"/>
<path d="M80.3703 141.728C79.4076 142.316 77.4187 138.303 76.8108 140.282C76.203 142.261 78.0016 146.461 78.8631 147.221C79.7246 147.982 80.2207 147.488 81.0926 148.112C81.9644 148.735 82.5434 149.196 83.6672 148.896C84.7909 148.596 84.6344 146.841 86.0531 146.296C87.4718 145.752 87.6669 142.157 86.8055 141.397C85.944 140.636 85.269 141.455 84.3568 141.369C83.4447 141.282 82.8018 139.228 81.8026 139.224C80.8033 139.22 81.333 141.141 80.3703 141.728Z" fill="#2D6A6E"/>
<path d="M86.6723 202.429C86.9513 207.688 75.7961 194.974 58.0696 187.621C40.343 180.267 29.0262 179.935 28.6142 164.419C28.2935 152.345 46.2112 146.106 62.9231 158.189C80.292 170.747 86.3933 197.169 86.6723 202.429Z" fill="#55A370"/>
<path d="M66.0022 173.989C71.9591 178.686 78.9843 189.551 79.9307 192.537C80.877 195.523 73.4658 183.277 64.9052 178.01C56.3446 172.743 51.1439 171.807 48.9045 169.705C46.665 167.602 60.0454 169.293 66.0022 173.989Z" fill="#2D6A6E"/>
</svg>
