<svg width="178" height="283" viewBox="0 0 178 283" fill="none" xmlns="http://www.w3.org/2000/svg">
<path d="M86.8285 271.854C84.1397 277.711 86.0763 259.844 61.1887 251.257C36.3011 242.67 17.9988 234.738 18.6068 216.957C19.2147 199.176 40.4209 200.968 63.5897 215.849C87.6695 231.314 89.5172 265.997 86.8285 271.854Z" fill="#55A370"/>
<path d="M94.5496 282.59C94.5496 282.59 94.5804 279.69 94.6173 274.5C94.6188 274.283 94.6204 274.062 94.6219 273.837C94.6459 270.382 94.6719 265.994 94.6934 260.835C94.695 260.456 94.6965 260.074 94.698 259.688C94.7193 254.297 94.7354 248.112 94.7393 241.305C94.7395 240.872 94.7397 240.437 94.7398 240C94.7459 221.632 94.6619 198.918 94.3546 175.144C93.8395 135.284 87.1012 85.5596 87.1012 85.5596L82.1916 84.8897C82.1916 84.8897 88.1992 137.76 88.5376 175.144C88.8759 212.527 87.0739 282.59 87.0739 282.59L94.5496 282.59Z" fill="#55A370"/>
<path d="M89.8068 282.59C89.8068 282.59 89.9805 185.36 90.0175 177.677C90.0546 169.993 83.0907 87.4378 83.0907 87.4378L80.2872 86.4775C80.2872 86.4775 86.3955 138.103 86.3967 176.1C86.3978 214.097 84.73 282.59 84.73 282.59L89.8068 282.59Z" fill="#2D6A6E"/>
<path d="M89.7303 206.564C86.945 210.716 79.533 197.556 59.3217 186.211C39.1104 174.866 25.4876 172.132 27.5494 156.006C29.1538 143.458 51.8387 140.792 70.0434 156.811C88.9638 173.461 92.5157 202.412 89.7303 206.564Z" fill="#55A370"/>
<path d="M74.4277 172.698C80.7412 179.305 86.5643 193.507 86.8847 197.252C87.2052 200.998 81.3013 185.071 71.7765 177.361C62.2516 169.651 55.7754 167.692 53.5044 164.802C51.2335 161.913 68.1142 166.091 74.4277 172.698Z" fill="#2D6A6E"/>
<path d="M69.6657 235.565C77.4858 242.32 85.9323 257.044 86.8482 260.959C87.7641 264.875 78.9679 248.346 67.5137 240.519C56.0595 232.693 48.7711 230.811 45.8802 227.844C42.9893 224.877 61.8457 228.81 69.6657 235.565Z" fill="#2D6A6E"/>
<path d="M92.2141 181.278C94.0772 184.056 100.31 174.349 116.013 165.213C131.716 156.076 142.042 153.388 141.35 142.114C140.811 133.341 123.997 132.721 109.548 145.047C94.53 157.858 90.3509 178.501 92.2141 181.278Z" fill="#55A370"/>
<path d="M105.824 157.706C100.871 162.627 96.0205 173.176 95.6505 175.953C95.2806 178.731 100.251 166.903 107.645 161.152C115.039 155.4 119.953 153.923 121.752 151.772C123.552 149.622 110.777 152.784 105.824 157.706Z" fill="#2D6A6E"/>
<path d="M115.744 232.494C106.926 239.741 96.843 254.632 94.698 259.688C94.5866 259.951 94.4966 260.187 94.4293 260.394C94.2124 261.061 94.3144 261.166 94.6934 260.835C96.6952 259.082 106.424 245.147 117.694 237.595C131.099 228.613 139.354 226.172 142.824 222.857C146.295 219.543 125.02 224.871 115.744 232.494Z" fill="#2D6A6E"/>
<path d="M128.798 249.613C154.035 236.698 171.093 234.347 168.348 213.309C166.211 196.939 137.734 191.516 115.06 210.653C105.537 218.692 99.1812 229.547 95.2219 240C95.0569 240.436 94.896 240.871 94.7393 241.305C94.7354 248.112 94.7193 254.297 94.698 259.688C96.843 254.632 106.926 239.741 115.744 232.494C125.02 224.871 146.295 219.543 142.824 222.857C139.354 226.172 131.099 228.613 117.694 237.595C106.424 245.147 96.6952 259.082 94.6934 260.835C94.6719 265.994 94.6459 270.382 94.6219 273.837C94.7469 273.771 94.8746 273.7 95.0051 273.625C100.324 270.537 110.195 259.135 128.798 249.613Z" fill="#55A370"/>
<path d="M64.6374 70.4594C58.0173 72.5492 58.1376 88.5 59.6375 96.5C61.1375 104.5 73.5632 124.026 85.1376 123C96.712 121.974 106.639 86.31 106.639 86.31C106.639 86.31 107.638 77.5 104.638 72C103.779 69.9465 101.69 67.9655 100.316 67.2816C95.1061 64.688 91.9134 70 90.6375 70C89.3616 70 88.8449 66.7159 83.4447 66.2285C78.0445 65.7411 77.2624 69.6013 75.0076 70.4594C72.7528 71.3174 71.2575 68.3695 64.6374 70.4594Z" fill="#FFB84E"/>
<path d="M88.784 121.694C73.4051 126.27 61.1923 104.607 59.6376 94.5C58.0829 84.3927 64.9796 76.947 67.6282 77.864C70.2768 78.781 67.4514 84.6725 68.8088 84.6725C70.1661 84.6725 68.8964 77.1019 72.9682 77.1019C77.04 77.1019 73.7051 85.5895 75.741 84.6725C77.7769 83.7555 78.5723 76.7633 81.2869 75.8463C84.0014 74.9294 83.3957 82.3449 84.753 81.4279C86.1102 80.511 81.3598 74.7742 84.753 73.8572C88.1462 72.9403 88.9561 80.4311 90.992 79.5141C93.0279 78.5972 89.6639 72.6112 92.3784 71.6942C95.0929 70.7772 97.9678 80.3463 100.004 80.3463C102.04 80.3462 95.8682 70.3226 99.2614 69.4056C102.655 68.4887 108.163 73.8573 107.629 84.6725C107.096 95.4877 104.163 117.118 88.784 121.694Z" fill="#FFB84E"/>
<path d="M69.3316 104.296C63.0052 94.7801 65.394 81.3439 70.3862 79.9784C75.3784 78.6128 76.8248 83.1502 78.8217 83.1502C80.8187 83.1502 81.6593 76.83 86.2424 76.8183C90.8254 76.8066 91.0457 82.2788 92.2322 82.2788C93.4186 82.2788 91.7724 77.8255 96.2255 74.6342C100.679 71.443 106.699 76.0097 106.209 86.6476" stroke="white" stroke-width="1.8" stroke-linecap="round"/>
<path d="M85.7775 113.028C85.8663 117.061 87.3634 123.214 87.9631 124.442C88.5628 125.669 87.5244 118.708 87.0383 113.566C86.5521 108.423 86.9311 105.03 86.8097 103.426C86.6883 101.821 85.6887 108.995 85.7775 113.028Z" fill="white"/>
<path d="M95.8969 111.943C94.2065 115.108 90.0641 118.356 88.8918 118.655C87.7194 118.954 91.6535 114.518 94.2372 110.915C96.8208 107.311 97.7216 104.122 98.4929 102.962C99.2643 101.803 97.5873 108.777 95.8969 111.943Z" fill="white"/>
<path d="M82.6899 117.739C81.1178 118.631 77.9733 115.955 77.1872 118.631C76.4011 121.307 77.9734 123.983 79.5456 124.875C81.1179 125.767 81.9037 125.057 83.4759 125.767C85.0482 126.477 86.0986 127.012 87.9834 126.477C89.8682 125.943 90.5508 122.199 92.9091 121.307C95.2673 120.415 95.2673 116.847 93.6952 115.955C92.123 115.063 90.5508 116.847 88.9786 116.847C87.4063 116.847 86.6204 114.171 85.0482 115.063C83.476 115.955 84.2621 116.847 82.6899 117.739Z" fill="#2D6A6E"/>
</svg>
