<svg width="178" height="283" viewBox="0 0 178 283" fill="none" xmlns="http://www.w3.org/2000/svg">
<path d="M87.3906 271.866C84.7019 277.716 86.6384 259.87 61.7508 251.292C36.8633 242.714 18.5609 234.791 19.1689 217.03C19.7768 199.269 40.983 201.059 64.1518 215.923C88.2316 231.371 90.0794 266.015 87.3906 271.866Z" fill="#55A370"/>
<path d="M90.2922 187.639C87.5068 191.786 80.0948 178.641 59.8835 167.308C39.6722 155.976 26.0494 153.245 28.1112 137.137C29.7156 124.603 52.4005 121.94 70.6052 137.942C89.5256 154.573 93.0775 183.492 90.2922 187.639Z" fill="#55A370"/>
<path d="M92.7757 156.045C94.6388 158.819 100.871 149.123 116.575 139.997C132.278 130.871 142.603 128.185 141.911 116.924C141.373 108.161 124.559 107.541 110.109 119.853C95.0916 132.65 90.9125 153.271 92.7757 156.045Z" fill="#55A370"/>
<path d="M91.4233 273.304C94.9578 278.911 104.123 262.552 129.36 249.65C154.596 236.749 171.655 234.401 168.909 213.386C166.773 197.034 138.295 191.618 115.622 210.733C92.0568 230.601 87.8888 267.698 91.4233 273.304Z" fill="#55A370"/>
<path d="M95.1113 282.59C95.1113 282.59 95.6497 231.946 94.9163 175.263C94.4011 135.447 87.6629 85.7784 87.6629 85.7784L82.7533 85.1093C82.7533 85.1093 88.7609 137.921 89.0992 175.263C89.4376 212.605 87.6356 282.59 87.6356 282.59L95.1113 282.59Z" fill="#55A370"/>
<path d="M90.3684 282.59C90.3684 282.59 90.5422 185.468 90.5792 177.793C90.6162 170.118 83.6523 87.6546 83.6523 87.6546L80.8489 86.6953C80.8489 86.6953 86.9572 138.263 86.9583 176.218C86.9595 214.173 85.2917 282.59 85.2917 282.59L90.3684 282.59Z" fill="#2D6A6E"/>
<path d="M74.9895 153.81C81.303 160.41 87.1261 174.596 87.4466 178.337C87.767 182.079 81.8631 166.17 72.3383 158.468C62.8135 150.767 56.3372 148.81 54.0663 145.924C51.7953 143.038 68.676 147.211 74.9895 153.81Z" fill="#2D6A6E"/>
<path d="M70.2273 235.617C78.0474 242.365 86.494 257.072 87.4099 260.983C88.3258 264.894 79.5296 248.384 68.0754 240.566C56.6211 232.748 49.3327 230.868 46.4418 227.905C43.551 224.941 62.4073 228.87 70.2273 235.617Z" fill="#2D6A6E"/>
<path d="M106.386 132.498C101.432 137.414 96.5822 147.951 96.2123 150.726C95.8424 153.5 100.813 141.686 108.207 135.94C115.601 130.195 120.515 128.719 122.314 126.572C124.113 124.424 111.339 127.582 106.386 132.498Z" fill="#2D6A6E"/>
<path d="M116.306 232.55C107.03 240.165 96.3537 256.229 94.9909 260.418C93.6282 264.608 104.852 246.617 118.256 237.645C131.66 228.673 139.915 226.234 143.386 222.923C146.857 219.613 125.582 224.935 116.306 232.55Z" fill="#2D6A6E"/>
<path d="M49.6375 48.5C44.6375 52 47.45 68.3035 50.2216 72.5068C52.9933 76.7101 67.0029 90.5414 82.7085 88.4398C98.4141 86.3381 110.803 61.2293 110.803 61.2293C110.803 61.2293 115.702 43.8227 108.734 39.112C101.766 34.4012 96.539 39.1121 94.6913 39.1121C92.8436 39.1121 90.6376 35.4418 85.3292 35.8799C80.0209 36.3181 79.9088 39.1119 77.1372 39.112C74.3656 39.1122 71.1376 36.5 65.1376 38C59.1376 39.5 59.1375 46.5 57.6375 47.5C56.1375 48.5 54.6375 45 49.6375 48.5Z" fill="#FFB84E"/>
<path d="M87.1128 43.2528C88.2781 43.4589 85.4077 56.7916 85.2087 57.9599C85.093 58.6395 86.5731 56.9977 87.4542 55.3482C88.3352 53.6988 89.1299 51.0823 89.4153 50.881C90.0974 50.3999 88.031 55.4196 87.0565 57.6847C86.9751 57.8738 88.9179 55.7198 90.8647 52.9428C92.5609 50.5233 94.2373 47.4801 94.8725 47.032C96.2369 46.0697 92.0303 53.1487 90.4668 55.2794C89.4803 56.6239 87.1945 58.9509 85.9762 60.5027C85.8633 60.6464 87.9742 59.6202 90.0689 57.6161C92.3388 55.4444 94.6099 52.2788 94.5596 52.3928C94.462 52.6139 93.4796 55.2106 90.5521 58.3033C87.6247 61.3961 83.5538 64.0672 83.5538 64.0672L72.845 63.596C73.8669 63.4439 71.5106 60.4162 69.6616 57.6171C68.168 55.3559 67.1398 53.2277 67.4446 53.0127C68.1267 52.5316 72.5607 61.7404 73.925 60.7782C74.6421 60.2724 72.3901 55.6927 72.3901 55.6927C72.3901 55.6927 70.1732 51.0882 70.8553 50.6071C71.5374 50.126 74.8061 59.1288 75.4882 58.6477C76.1703 58.1666 74.0671 49.3699 74.7491 48.8888C75.4312 48.4077 76.3693 56.9982 77.0514 56.5171C77.7335 56.0361 76.8014 47.8242 77.9608 47.6516C79.1203 47.479 77.6199 60.2282 78.7852 60.4344C79.9505 60.6406 80.7747 48.751 81.4568 48.27C82.1389 47.7889 80.2631 55.2799 81.4284 55.4861C82.5937 55.6923 83.7021 45.6583 85.0664 44.6961C86.4307 43.7339 81.798 60.3655 81.798 60.3655C81.798 60.3655 84.8196 55.7997 85.7202 51.4311C86.5524 47.3943 86.5531 43.1538 87.1128 43.2528Z" fill="white"/>
<path d="M88.2711 96.5302C66.8742 101.101 50.7736 77.1872 47.941 67.1118C45.1085 57.0364 50.043 52.1516 53.7281 53.0675C57.4131 53.9835 59.9742 60.1412 61.8627 60.1412C63.7511 60.1412 63.5786 50.7331 69.2437 50.7331C74.9089 50.7331 82.6626 56.3085 82.6626 56.3085C82.6626 56.3085 87.6103 50.4962 91.387 49.5802C95.1638 48.6643 99.0989 56.9729 101.931 56.9729C104.764 56.9729 102.054 43.1801 106.775 42.2641C111.496 41.3482 115.233 48.7463 114.49 59.5494C113.748 70.3526 109.668 91.9592 88.2711 96.5302Z" fill="#FFB84E"/>
<path d="M50.1538 69.646C47.3732 60.0519 51.27 53.3435 54.8874 54.2157C58.5048 55.0879 59.661 60.388 61.5148 60.388C63.3686 60.388 62.9171 50.964 70.2982 50.6364C77.6793 50.3088 79.7882 55.9168 81.8971 55.9168C84.0059 55.9168 84.9392 51.3649 90.3326 49.5803C95.726 47.7957 100.305 58.3851 101.28 58.029C102.254 57.6729 94.6522 48.0427 101.28 44.9567C107.907 41.8707 113.205 50.1008 112.476 60.388" stroke="white" stroke-width="1.8" stroke-linecap="round"/>
<path d="M75.0261 89.0703C77.7916 92.0016 83.9854 94.7363 85.6582 94.8982C87.3309 95.0601 81.2738 91.1298 77.2066 87.8679C73.1395 84.606 71.4717 81.5615 70.2466 80.5052C69.0215 79.4489 72.2607 86.139 75.0261 89.0703Z" fill="white"/>
<path d="M84.0886 87.8731C84.2122 91.9019 86.2951 98.0476 87.1295 99.2742C87.9639 100.501 86.5191 93.5472 85.8427 88.4103C85.1663 83.2733 85.6937 79.8846 85.5247 78.2818C85.3558 76.679 83.9651 83.8444 84.0886 87.8731Z" fill="white"/>
<path d="M98.1681 86.7892C95.8163 89.9512 90.053 93.1956 88.4219 93.4941C86.7908 93.7925 92.2643 89.3615 95.8589 85.7623C99.4536 82.163 100.707 78.977 101.78 77.8189C102.853 76.6608 100.52 83.6272 98.1681 86.7892Z" fill="white"/>
<path d="M83.2516 92.5791C81.6794 93.4701 78.535 90.797 77.7489 93.4701C76.9628 96.1433 78.535 98.8164 80.1072 99.7075C81.6795 100.599 82.4653 99.8893 84.0376 100.599C85.6098 101.308 86.6602 101.842 88.545 101.308C90.4298 100.774 91.1125 97.0344 93.4707 96.1433C95.829 95.2523 95.829 91.6881 94.2568 90.797C92.6846 89.906 91.1125 91.688 89.5402 91.688C87.968 91.688 87.182 89.0149 85.6098 89.9059C84.0377 90.797 84.8237 91.688 83.2516 92.5791Z" fill="#2D6A6E"/>
</svg>
