<svg width="178" height="283" viewBox="0 0 178 283" fill="none" xmlns="http://www.w3.org/2000/svg">
<path d="M87.6279 265.235C85.2245 271.746 86.3683 252.169 61.4202 243.936C36.4721 235.704 18.0558 227.886 17.8911 208.463C17.7264 189.039 38.7464 190.027 62.2679 205.203C86.7141 220.976 90.0313 258.723 87.6279 265.235Z" fill="#55A370"/>
<path d="M69.1165 226.433C77.1301 233.445 86.1054 249.121 87.1784 253.35C88.2514 257.579 78.8532 239.951 67.2044 231.935C55.5557 223.92 48.2767 222.199 45.2941 219.095C42.3115 215.991 61.1029 219.421 69.1165 226.433Z" fill="#2D6A6E"/>
<path d="M93.3957 282.904C93.3957 282.904 93.9456 235.811 93.1965 183.103C92.6703 146.08 85.7879 99.8939 85.7879 99.8939L80.7732 99.2717C80.7732 99.2717 86.9094 148.38 87.255 183.103C87.6005 217.827 85.76 282.904 85.76 282.904L93.3957 282.904Z" fill="#55A370"/>
<path d="M88.5513 282.904C88.5513 282.904 88.7288 192.593 88.7666 185.456C88.8044 178.319 81.6915 101.639 81.6915 101.639L78.8281 100.747C78.8281 100.747 85.0671 148.698 85.0683 183.992C85.0694 219.285 83.3659 282.904 83.3659 282.904L88.5513 282.904Z" fill="#2D6A6E"/>
<path d="M90.8579 266.102C92.8119 273.337 103.123 254.865 126.058 242.736C148.993 230.607 163.415 230.09 164.724 204.393C165.744 184.398 143.253 174.013 121.37 193.977C98.6264 214.727 88.9039 258.867 90.8579 266.102Z" fill="#55A370"/>
<path d="M118.228 220.36C109.311 228.28 97.8078 246.193 95.9766 251.056C94.1453 255.92 106.425 235.76 118.967 226.764C131.508 217.769 138.708 215.948 142.123 212.428C145.538 208.909 127.146 212.44 118.228 220.36Z" fill="#2D6A6E"/>
<path d="M90.5297 172.744C92.9482 175.391 97.8863 163.996 112.87 151.616C127.853 139.236 138.257 134.635 135.659 122.732C133.638 113.47 115.868 115.634 102.731 131.204C89.0772 147.385 88.1113 170.096 90.5297 172.744Z" fill="#55A370"/>
<path d="M100.919 145.325C96.5309 151.404 93.185 163.465 93.2572 166.489C93.3294 169.512 96.5896 156.067 103.404 148.693C110.219 141.318 115.137 138.917 116.67 136.322C118.204 133.728 105.306 139.246 100.919 145.325Z" fill="#2D6A6E"/>
<path d="M89.8208 192.272C89.3167 198.025 79.1418 182.814 61.0006 172.612C42.8593 162.41 30.6081 160.639 32.5419 143.721C34.0466 130.557 54.4822 126.006 70.7945 141.223C87.7481 157.038 90.3249 186.52 89.8208 192.272Z" fill="#55A370"/>
<path d="M71.7168 158.782C77.4714 164.63 83.4406 177.316 84.0109 180.68C84.5813 184.044 78.4046 169.808 69.9071 163.016C61.4096 156.224 55.8997 154.559 53.788 151.994C51.6762 149.43 65.9621 152.935 71.7168 158.782Z" fill="#2D6A6E"/>
<path d="M104.019 116.012C103.849 129.685 92.536 141.581 84.7323 140.542C76.9286 139.503 67.0594 127.401 67.2295 113.729C67.3995 100.057 74.2505 92.9728 84.7321 93.0975C99.4543 92.035 104.189 102.34 104.019 116.012Z" fill="#FFB84E"/>
<path d="M83.3995 135.594C81.7495 136.313 78.8744 133.42 77.837 135.946C76.7996 138.472 78.1097 141.218 79.5898 142.231C81.0698 143.244 81.9197 142.628 83.4172 143.464C84.9146 144.301 85.9093 144.918 87.8364 144.575C89.7635 144.232 90.7996 140.66 93.232 140.014C95.6645 139.368 96.0044 135.903 94.5244 134.889C93.0443 133.876 91.3094 135.462 89.7443 135.315C88.1793 135.168 87.6519 132.495 86.0019 133.215C84.3519 133.934 85.0495 134.874 83.3995 135.594Z" fill="#2D6A6E"/>
<path d="M76.2713 126.465C71.8221 119.795 69.8305 106.957 76.7868 102.819C83.7431 98.6822 87.3292 103.888 89.4365 103.9C91.5438 103.912 92.5853 101.903 95.7403 100.914C98.8953 99.9242 103.233 101.477 101.802 110.058" stroke="white" stroke-width="1.8" stroke-linecap="round"/>
</svg>
