<svg width="355" height="308" viewBox="0 0 355 308" fill="none" xmlns="http://www.w3.org/2000/svg">
<ellipse cx="175.455" cy="103.466" rx="108.212" ry="103.466" fill="#A9DDEA"/>
<path d="M182.705 105.957C181.979 107.079 180.819 106.556 178.926 105.099C178.887 105.069 178.847 105.039 178.808 105.008C175.632 102.541 170.438 97.5708 161.875 93.3069C148.018 86.4072 138.651 85.1518 140.159 73.9131C141.332 65.168 156.969 62.2714 169.418 72.4945C182.357 83.1195 184.646 102.959 182.705 105.957Z" fill="#55A370"/>
<path d="M179.048 105.877C180.447 108.844 185.319 103.631 196.052 98.5703C206.785 93.51 216.872 94.2084 214.699 84.8306C212.889 77.0169 201.302 72.3485 191.022 79.0408C181.121 85.4858 178.087 100.482 178.808 105.008C178.904 105.083 178.913 105.309 178.904 105.47C178.946 105.626 178.994 105.762 179.048 105.877Z" fill="#55A370"/>
<path d="M179.052 102.931H183.082L184.492 120.262H178.044L178.904 105.47L178.926 105.099L179.052 102.931Z" fill="#55A370"/>
<path d="M174.911 88.1435C178.31 91.857 181.445 99.8395 181.618 101.945C181.639 102.2 181.605 102.839 181.469 102.325C181.333 101.811 177.99 94.5724 173.484 90.7645C168.356 86.4308 164.87 85.3296 163.647 83.7056C162.425 82.0817 171.512 84.43 174.911 88.1435Z" fill="#2D6A6E"/>
<path d="M187.259 92.0058C184.502 94.7061 181.779 100.676 181.563 102.283C181.346 103.891 184.143 97.1624 188.253 94.0616C192.362 90.9608 195.08 90.2851 196.083 89.0927C197.086 87.9003 190.017 89.3054 187.259 92.0058Z" fill="#2D6A6E"/>
<path d="M178.85 104.946L180.261 105.954L181.067 120.261H178.044L178.85 104.946Z" fill="#2D6A6E"/>
<ellipse cx="177.5" cy="214" rx="177.5" ry="94" fill="#2D6A6E"/>
</svg>
