<svg width="355" height="380" viewBox="0 0 355 380" fill="none" xmlns="http://www.w3.org/2000/svg">
<ellipse cx="178" cy="139.5" rx="146" ry="139.5" fill="#A9DDEA"/>
<path d="M178.146 186.232C176.698 189.379 177.741 179.781 164.336 175.168C150.931 170.556 141.074 166.295 141.401 156.743C141.729 147.192 153.15 148.155 165.629 156.148C178.599 164.456 179.594 183.086 178.146 186.232Z" fill="#55A370"/>
<path d="M179.709 140.938C178.209 143.168 174.217 136.099 163.331 130.005C152.445 123.91 145.107 122.442 146.218 113.78C147.082 107.039 159.3 105.607 169.105 114.212C179.296 123.156 181.209 138.708 179.709 140.938Z" fill="#55A370"/>
<path d="M181.047 123.948C182.05 125.44 185.407 120.226 193.865 115.318C202.323 110.41 207.884 108.966 207.512 102.91C207.222 98.1973 198.165 97.8638 190.383 104.485C182.294 111.367 180.043 122.456 181.047 123.948Z" fill="#55A370"/>
<path d="M180.318 187.006C182.222 190.021 187.159 181.223 200.751 174.285C214.344 167.347 223.532 166.085 222.053 154.784C220.902 145.99 205.564 143.077 193.352 153.357C180.659 164.041 178.414 183.991 180.318 187.006Z" fill="#55A370"/>
<path d="M182.305 192C182.305 192 182.595 164.765 182.2 134.282C181.922 112.871 178.293 86.1606 178.293 86.1606L175.649 85.8008C175.649 85.8008 178.884 114.201 179.067 134.282C179.249 154.364 178.278 192 178.278 192L182.305 192Z" fill="#55A370"/>
<path d="M179.75 192C179.75 192 179.844 139.77 179.864 135.643C179.884 131.516 176.133 87.1695 176.133 87.1695L174.623 86.6537C174.623 86.6537 177.913 114.385 177.913 134.796C177.914 155.207 177.016 192 177.016 192L179.75 192Z" fill="#2D6A6E"/>
<path d="M171.467 122.746C174.867 126.295 178.004 133.924 178.176 135.936C178.349 137.948 175.169 129.393 170.039 125.251C164.909 121.109 161.421 120.057 160.197 118.505C158.974 116.953 168.066 119.197 171.467 122.746Z" fill="#2D6A6E"/>
<path d="M168.902 166.739C173.114 170.368 177.663 178.277 178.157 180.38C178.65 182.484 173.912 173.605 167.743 169.401C161.574 165.196 157.648 164.185 156.091 162.592C154.534 160.998 164.69 163.111 168.902 166.739Z" fill="#2D6A6E"/>
<path d="M188.377 111.285C185.709 113.928 183.097 119.595 182.898 121.087C182.698 122.579 185.376 116.226 189.358 113.136C193.341 110.046 195.987 109.253 196.956 108.098C197.925 106.943 191.045 108.641 188.377 111.285Z" fill="#2D6A6E"/>
<path d="M193.72 165.089C188.724 169.184 182.974 177.823 182.24 180.076C181.506 182.329 187.551 172.654 194.771 167.83C201.99 163.005 206.437 161.693 208.306 159.913C210.175 158.132 198.717 160.994 193.72 165.089Z" fill="#2D6A6E"/>
<path d="M140.591 56.1808C138.281 59.7343 142.31 65.4668 144.044 67.8358C145.777 70.2049 163.109 77.3119 172.931 76.1274C182.752 74.9429 201.833 59.1422 201.833 59.1422C201.833 59.1422 204.144 53.2197 202.988 48.4816C201.833 43.7436 197.211 44.9281 196.055 44.9281C194.9 44.9281 194.322 40.7824 190.278 40.7824C186.233 40.7824 186.811 43.7435 185.078 43.7436C183.345 43.7437 179.878 39.0055 175.834 40.1901C171.79 41.3748 173.523 45.5204 171.79 45.5204C170.057 45.5204 169.479 40.7824 164.857 40.7824C160.235 40.7823 159.08 44.9281 156.769 45.5204C154.458 46.1126 153.302 43.7436 149.258 45.5204C145.214 47.2971 147.524 50.8505 145.791 52.6273C144.058 54.404 142.902 52.6273 140.591 56.1808Z" fill="#FFB84E"/>
<path d="M157.138 52.2064C156.496 52.8837 163.922 60.5938 164.54 61.2937C164.899 61.7008 163.279 61.2711 162.031 60.5599C160.783 59.8487 159.181 58.4423 158.917 58.4376C158.287 58.4263 161.7 60.8743 163.267 61.9597C163.397 62.0503 161.272 61.487 158.88 60.5034C156.797 59.6464 154.463 58.3577 153.876 58.3472C152.615 58.3246 158.238 61.1806 160.116 61.9031C161.301 62.359 163.715 62.8813 165.133 63.3707C165.264 63.4161 163.509 63.6945 161.352 63.3029C159.014 62.8785 156.255 61.7813 156.335 61.8353C156.49 61.9401 158.201 63.2464 161.339 63.9915C164.478 64.7366 168.154 64.6685 168.154 64.6685C168.154 64.6685 177.279 64.5704 179.157 65.2929C180.344 65.7494 183.144 60.6175 186.67 57.5579C188.725 55.7744 190.157 53.9012 189.895 53.4829C189.633 53.0646 188.911 54.7052 187.325 56.192C185.992 57.4418 184.425 58.2064 184.137 58.2012C183.836 58.1959 184.665 57.2912 185.434 56.1581C186.279 54.9145 187.074 53.4323 186.744 53.4264C186.493 53.4219 185.48 55.4023 184.162 56.8241C182.167 58.9739 179.676 60.8765 179.676 60.8765C179.676 60.8765 181.32 58.5896 182.914 56.1129C184.381 53.831 185.193 51.3321 184.891 51.3267C184.592 51.3214 183.746 54.0097 182.283 56.1016C180.663 58.4198 179.058 60.1766 179.058 60.1766C179.058 60.1766 181.666 55.4017 181.035 55.3904C180.763 55.3855 181.035 55.3904 179.738 57.4335C178.441 59.4767 177.81 59.4654 177.81 59.4654C177.81 59.4654 179.051 57.583 179.775 55.3678C180.563 52.9551 180.827 50.2059 180.492 50.559C180.193 50.8734 179.922 52.6813 179.157 54.6679C178.274 56.9611 176.888 59.4488 176.55 59.4427C176.244 59.4373 177.217 57.3883 177.267 54.634C177.316 51.8796 177.371 49.8142 176.723 49.8026C176.1 49.7914 176.837 52.1603 176.637 54.6227C176.432 57.1423 175.303 59.072 174.66 59.4088C173.956 59.7772 174.152 56.6385 174.128 53.8889C174.109 51.6676 173.854 49.7511 173.572 49.7461C172.942 49.7348 174.054 58.0204 172.794 57.9977C172.131 57.9859 171.608 53.8436 171.608 53.8436C171.608 53.8436 171.051 49.7008 170.421 49.6895C169.791 49.6782 171.546 57.2866 170.916 57.2752C170.285 57.2639 167.888 50.3329 167.258 50.3216C166.628 50.3103 169.668 56.564 169.037 56.5527C168.407 56.5415 165.524 50.547 164.725 50.9649C163.926 51.3829 170.248 59.3297 169.606 60.007C168.963 60.6843 163.428 53.0081 162.797 52.9968C162.167 52.9855 166.504 57.1961 165.862 57.8734C165.219 58.5507 160.289 52.263 159.029 52.2404C157.768 52.2178 167.691 61.3502 167.691 61.3502C167.691 61.3502 163.871 59.6504 161.463 57.1057C159.238 54.7542 157.447 51.8812 157.138 52.2064Z" fill="white"/>
<path d="M177.292 84.7818C160.972 87.3742 145.179 74.2685 143.431 68.5653C141.682 62.8622 144.127 60.4139 146.402 60.9324C148.676 61.4509 151.008 63.5247 152.173 63.5247C153.339 63.5247 155.087 61.4509 158.584 61.4509C162.081 61.4509 162.138 64.0432 163.887 63.5247C165.635 63.0063 164.469 60.414 166.801 59.8955C169.132 59.377 171.749 64.0432 172.914 63.5247C174.08 63.0063 172.051 57.6083 174.965 57.0899C177.879 56.5714 180.052 61.4509 181.801 60.9324C183.549 60.4139 183.12 54.7108 185.451 54.1924C187.783 53.6739 189.531 55.2293 191.28 55.2293C193.028 55.2293 193.611 51.6 196.525 51.0815C199.439 50.563 203.519 51.0816 202.936 58.8586C202.353 66.6356 193.611 82.1895 177.292 84.7818Z" fill="#FFB84E"/>
<path d="M202.936 58.924C203.519 51.0828 199.439 50.56 196.525 51.0827C193.611 51.6055 193.028 55.2647 191.28 55.2647C189.531 55.2648 187.783 53.6965 185.451 54.2193C183.12 54.742 183.549 61.015 181.801 61.5377C180.052 62.0605 177.879 57.3072 174.965 57.8299C172.051 58.3527 173.396 63.106 172.231 63.6287C171.065 64.1515 169.132 59.4467 166.801 59.9695C164.469 60.4923 165.635 63.106 163.887 63.6287C162.138 64.1515 162.081 61.5377 158.584 61.5377C155.087 61.5377 153.339 63.6287 152.173 63.6287C151.008 63.6287 148.676 61.5377 146.402 61.015C144.127 60.4922 141.682 62.9607 143.431 68.711" stroke="white" stroke-linecap="round"/>
<path d="M167.206 81.8711C168.935 83.4476 172.764 84.7338 173.792 84.7432C174.819 84.7526 171.06 82.7588 168.529 81.055C165.998 79.3512 164.941 77.6522 164.177 77.0957C163.414 76.5392 165.477 80.2945 167.206 81.8711Z" fill="white"/>
<path d="M170.507 80.2976C171.523 82.4064 174.592 85.0308 175.54 85.4236C176.488 85.8164 173.747 82.5618 172.035 80.0353C170.323 77.5088 169.974 75.5376 169.474 74.7361C168.974 73.9346 169.49 78.1889 170.507 80.2976Z" fill="white"/>
<path d="M174.55 79.9067C174.627 82.2394 175.919 85.7981 176.436 86.5083C176.954 87.2185 176.058 83.1921 175.638 80.2177C175.219 77.2432 175.546 75.281 175.441 74.3529C175.336 73.4249 174.474 77.5739 174.55 79.9067Z" fill="white"/>
<path d="M183.282 79.2793C181.824 81.1103 178.249 82.9889 177.238 83.1617C176.226 83.3345 179.621 80.7688 181.85 78.6847C184.079 76.6006 184.857 74.7558 185.522 74.0852C186.188 73.4146 184.741 77.4484 183.282 79.2793Z" fill="white"/>
<path d="M174.757 82.6319C173.75 83.1479 171.737 81.6 171.234 83.1479C170.73 84.6957 171.737 86.2436 172.744 86.7595C173.75 87.2755 174.253 86.8648 175.26 87.2755C176.267 87.6861 176.939 87.9954 178.146 87.6861C179.353 87.3769 179.79 85.2117 181.3 84.6957C182.81 84.1798 182.81 82.116 181.803 81.6C180.796 81.0841 179.79 82.116 178.783 82.1159C177.777 82.1159 177.273 80.5681 176.267 81.0841C175.26 81.6 175.763 82.116 174.757 82.6319Z" fill="#2D6A6E"/>
<ellipse cx="177.5" cy="286" rx="177.5" ry="94" fill="#2D6A6E"/>
</svg>
