<svg width="107" height="80" viewBox="0 0 107 80" fill="none" xmlns="http://www.w3.org/2000/svg">
<path d="M80.2402 18.6358C89.2673 36.66 79.3716 59.8927 58.1376 70.5273C36.9036 81.162 12.3722 75.1716 3.34504 57.1474C-5.68207 39.1232 4.21357 15.8906 25.4476 5.2559C46.6816 -5.37878 71.2131 0.611618 80.2402 18.6358Z" fill="#A9DDEA"/>
<path d="M62.1038 48.845C61.5066 49.7676 60.5534 49.3372 58.9968 48.1399C58.9649 48.1154 58.9327 48.0905 58.9002 48.0652C56.2894 46.0371 52.0204 41.9515 44.9812 38.4466C33.5908 32.775 25.8914 31.7431 27.1307 22.5048C28.0949 15.3163 40.9483 12.9354 51.1819 21.3387C61.8179 30.0725 63.6991 46.3804 62.1038 48.845Z" fill="#55A370"/>
<path d="M59.0978 48.7795C60.2476 51.2183 64.2524 46.9326 73.0749 42.7731C81.8974 38.6135 90.1886 39.1876 88.4029 31.4791C86.9151 25.0562 77.3906 21.2187 68.9399 26.7198C60.8013 32.0176 58.3075 44.3444 58.9002 48.0652C58.9791 48.1263 58.9868 48.3119 58.9791 48.4443C59.0135 48.5726 59.0531 48.6847 59.0978 48.7795Z" fill="#55A370"/>
<path d="M59.1004 46.3579H62.4134L63.5729 60.6035H58.2722L58.9791 48.4443L58.9968 48.1399L59.1004 46.3579Z" fill="#55A370"/>
<path d="M55.6973 34.2023C58.4913 37.2549 61.0682 43.8167 61.21 45.5474C61.2273 45.7574 61.1999 46.2822 61.0881 45.8597C60.9764 45.4372 58.2277 39.487 54.524 36.3568C50.3089 32.7944 47.4429 31.8891 46.4379 30.5543C45.4329 29.2194 52.9033 31.1497 55.6973 34.2023Z" fill="#2D6A6E"/>
<path d="M65.8478 37.3772C63.5812 39.5969 61.3429 44.5042 61.1648 45.8256C60.9868 47.147 63.2864 41.616 66.6642 39.0671C70.042 36.5182 72.2761 35.9627 73.1008 34.9826C73.9256 34.0024 68.1144 35.1574 65.8478 37.3772Z" fill="#2D6A6E"/>
<path d="M58.9347 48.0144L60.0942 48.8426L60.7568 60.6035H58.2721L58.9347 48.0144Z" fill="#2D6A6E"/>
<path d="M107 80.0002H15C15 80.0002 26.3905 60.0002 61 60.0002C95.6095 60.0002 107 80.0002 107 80.0002Z" fill="#2D6A6E"/>
</svg>
