<svg width="178" height="283" viewBox="0 0 178 283" fill="none" xmlns="http://www.w3.org/2000/svg">
<path d="M90.3485 258.842C89.1345 260.717 87.1964 259.842 84.0319 257.408C83.9669 257.358 83.9014 257.308 83.8354 257.256C78.5273 253.133 69.8482 244.827 55.5369 237.701C32.3793 226.17 16.7259 224.072 19.2454 205.29C21.2058 190.675 47.3377 185.834 68.1434 202.919C89.7672 220.676 93.5919 253.831 90.3485 258.842Z" fill="#55A370"/>
<path d="M84.2371 258.708C86.5748 263.667 94.7167 254.954 112.654 246.497C130.591 238.04 147.447 239.207 143.817 223.535C140.792 210.477 121.428 202.675 104.247 213.859C87.7004 224.63 82.6304 249.692 83.8354 257.256C83.9959 257.38 84.0115 257.758 83.9959 258.027C84.0657 258.288 84.1463 258.516 84.2371 258.708Z" fill="#55A370"/>
<path d="M84.2425 253.785H90.9779L93.3354 282.748H82.5586L83.9959 258.027L84.0319 257.408L84.2425 253.785Z" fill="#55A370"/>
<path d="M77.324 229.072C83.0044 235.278 88.2436 248.619 88.5319 252.137C88.5669 252.564 88.5112 253.631 88.284 252.772C88.0569 251.913 82.4685 239.816 74.9387 233.452C66.369 226.209 60.5422 224.369 58.499 221.655C56.4558 218.941 71.6437 222.866 77.324 229.072Z" fill="#2D6A6E"/>
<path d="M97.9608 235.527C93.3526 240.04 88.8019 250.016 88.44 252.703C88.0781 255.389 92.7532 244.145 99.6205 238.962C106.488 233.78 111.03 232.651 112.707 230.658C114.384 228.665 102.569 231.014 97.9608 235.527Z" fill="#2D6A6E"/>
<path d="M83.9052 257.153L86.2626 258.837L87.6097 282.747H82.5581L83.9052 257.153Z" fill="#2D6A6E"/>
</svg>
