<svg width="178" height="284" viewBox="0 0 178 284" fill="none" xmlns="http://www.w3.org/2000/svg">
<path d="M85.8678 269.291C83.4258 274.963 85.1846 257.661 62.5811 249.345C39.9775 241.029 23.3549 233.349 23.907 216.129C24.4592 198.91 43.7192 200.646 64.7617 215.056C86.6316 230.033 88.3098 263.619 85.8678 269.291Z" fill="#55A370"/>
<path d="M90.9624 273.174C93.6628 279.235 100.665 261.548 119.947 247.599C139.228 233.649 152.261 231.111 150.163 208.39C148.531 190.71 126.773 184.854 109.45 205.522C91.4464 227.002 88.2619 267.112 90.9624 273.174Z" fill="#55A370"/>
<path d="M92.8168 283.214C92.8168 283.214 93.3126 265.425 92.6372 245.515C92.1628 231.529 85.9577 214.083 85.9577 214.083L81.4366 213.848C81.4366 213.848 86.9688 232.398 87.2804 245.515C87.592 258.632 85.9326 283.214 85.9326 283.214L92.8168 283.214Z" fill="#55A370"/>
<path d="M88.4492 283.214C88.4492 283.214 88.6092 249.099 88.6433 246.404C88.6774 243.708 82.2645 214.742 82.2645 214.742L79.6829 214.405C79.6829 214.405 85.3079 232.519 85.3089 245.85C85.31 259.182 83.7741 283.214 83.7741 283.214L88.4492 283.214Z" fill="#2D6A6E"/>
<path d="M70.2806 234.149C77.3829 240.691 85.0543 254.949 85.8862 258.741C86.718 262.533 78.7291 246.526 68.3261 238.947C57.9231 231.368 51.3035 229.545 48.6779 226.672C46.0524 223.799 63.1782 227.608 70.2806 234.149Z" fill="#2D6A6E"/>
<path d="M109.973 229.11C102.886 237.343 94.729 254.712 93.6878 259.241C92.6467 263.771 101.222 244.319 111.463 234.619C121.704 224.918 128.011 222.281 130.663 218.702C133.314 215.122 117.06 220.876 109.973 229.11Z" fill="#2D6A6E"/>
<path d="M84.2898 230.368C87.815 233.337 89.6971 220.345 102.431 206.096C115.165 191.847 125.269 186.483 118.617 173.022C113.44 162.548 94.3777 165.252 84.7052 183.093C74.6522 201.634 80.7645 227.4 84.2898 230.368Z" fill="#55A370"/>
<path d="M89.0696 197.994C85.7982 204.686 84.3519 217.136 84.8465 220.116C85.3412 223.096 86.5116 209.29 91.8842 200.941C97.2567 192.592 101.546 189.457 102.623 186.653C103.7 183.849 92.3409 191.301 89.0696 197.994Z" fill="#2D6A6E"/>
</svg>
