<svg width="178" height="283" viewBox="0 0 178 283" fill="none" xmlns="http://www.w3.org/2000/svg">
<path d="M86.5514 269.821C84.0365 275.493 85.8478 258.191 62.5696 249.875C39.2913 241.559 22.1725 233.879 22.7411 216.659C23.3098 199.44 43.1447 201.176 64.8153 215.586C87.338 230.563 89.0663 264.149 86.5514 269.821Z" fill="#55A370"/>
<path d="M91.7975 273.704C94.5785 279.765 101.79 262.078 121.647 248.129C141.504 234.179 154.926 231.641 152.765 208.92C151.084 191.24 128.677 185.384 110.837 206.052C92.296 227.532 89.0165 267.642 91.7975 273.704Z" fill="#55A370"/>
<path d="M93.3319 282.875C93.3319 282.875 93.8033 259.079 93.1612 232.445C92.7102 213.737 86.8109 190.399 86.8109 190.399L85.0632 194.302C85.0632 194.302 87.7722 214.899 88.0684 232.445C88.3646 249.991 86.787 282.875 86.787 282.875L93.3319 282.875Z" fill="#55A370"/>
<path d="M89.1796 282.875C89.1796 282.875 89.229 239.089 89.1458 232.445C89.0626 225.801 85.0632 194.302 85.0632 194.302L85.063 200.045C85.063 200.045 86.1931 215.06 86.1941 232.894C86.1951 250.728 84.735 282.875 84.735 282.875L89.1796 282.875Z" fill="#2D6A6E"/>
<path d="M70.4978 234.679C77.8122 241.221 85.7126 255.479 86.5693 259.271C87.4259 263.063 79.1985 247.056 68.485 239.477C57.7714 231.898 50.9543 230.075 48.2503 227.202C45.5464 224.329 63.1834 228.138 70.4978 234.679Z" fill="#2D6A6E"/>
<path d="M111.375 229.639C104.077 237.873 95.6764 255.242 94.6042 259.771C93.532 264.301 102.363 244.849 112.91 235.149C123.456 225.448 129.952 222.811 132.683 219.232C135.413 215.652 118.674 221.406 111.375 229.639Z" fill="#2D6A6E"/>
<path d="M87.2461 211.308C90.7151 214.463 93.3354 201.592 107.182 188.054C121.029 174.516 131.704 169.708 125.571 155.905C120.8 145.164 101.053 146.83 90.1654 164.12C78.8494 182.09 83.7771 208.152 87.2461 211.308Z" fill="#55A370"/>
<path d="M93.8684 179.238C90.1513 185.743 88.0076 198.097 88.3592 201.1C88.7109 204.102 90.6423 190.38 96.6076 182.334C102.573 174.288 107.149 171.39 108.405 168.648C109.661 165.907 97.5855 172.732 93.8684 179.238Z" fill="#2D6A6E"/>
<path d="M89.2817 217.971C89.2817 220.08 81.2613 213.295 64.6966 204.926C48.132 196.557 37.4485 194.487 37.4446 182.777C37.4416 173.664 54.5245 171.863 70.013 183.618C86.1106 195.836 89.2817 215.862 89.2817 217.971Z" fill="#55A370"/>
<path d="M72.5524 195.421C77.5606 198.864 83.4888 206.957 84.2935 209.2C85.0983 211.444 78.8413 202.311 71.6501 198.486C64.4589 194.66 61.0694 193.507 59.1853 191.957C57.3011 190.408 67.5443 191.977 72.5524 195.421Z" fill="#2D6A6E"/>
</svg>
